<svg width="71" height="26" viewBox="0 0 71 26" fill="none" xmlns="http://www.w3.org/2000/svg">
<path d="M0 12.5372C0 5.61309 5.61308 0 12.5372 0H58.4628C65.3869 0 71 5.61309 71 12.5372C71 19.4613 65.3869 25.0744 58.4628 25.0744H12.5372C5.61308 25.0744 0 19.4613 0 12.5372Z" fill="#FF5454"/>
<path d="M16.575 17H12.6V16.355L13.86 15.86V10.715H12.69V9.815L13.86 9.335V8.435C13.86 7.445 14.11 6.695 14.61 6.185C15.12 5.665 15.835 5.405 16.755 5.405C17.115 5.405 17.445 5.46 17.745 5.57C18.055 5.67 18.27 5.775 18.39 5.885L18.585 6.05L18.18 6.83C17.9 6.67 17.48 6.59 16.92 6.59C16.37 6.59 15.96 6.755 15.69 7.085C15.43 7.405 15.3 7.995 15.3 8.855V9.5H17.715V10.715H15.3V15.86L16.575 16.355V17ZM25.2669 16.085C24.5369 16.805 23.6169 17.165 22.5069 17.165C21.3969 17.165 20.4769 16.805 19.7469 16.085C19.0169 15.355 18.6519 14.41 18.6519 13.25C18.6519 12.09 19.0169 11.145 19.7469 10.415C20.4769 9.685 21.3969 9.32 22.5069 9.32C23.6169 9.32 24.5369 9.685 25.2669 10.415C25.9969 11.145 26.3619 12.09 26.3619 13.25C26.3619 14.41 25.9969 15.355 25.2669 16.085ZM20.7819 15.26C21.2319 15.74 21.8069 15.98 22.5069 15.98C23.2069 15.98 23.7819 15.74 24.2319 15.26C24.6819 14.77 24.9069 14.115 24.9069 13.295C24.9069 12.475 24.6769 11.805 24.2169 11.285C23.7669 10.765 23.1969 10.505 22.5069 10.505C21.8169 10.505 21.2419 10.765 20.7819 11.285C20.3319 11.805 20.1069 12.475 20.1069 13.295C20.1069 14.115 20.3319 14.77 20.7819 15.26ZM31.38 17H27.435V16.355L28.695 15.86V6.605H27.435V5.705C27.825 5.515 28.275 5.42 28.785 5.42C29.305 5.42 29.655 5.545 29.835 5.795C30.015 6.035 30.105 6.405 30.105 6.905V15.86L31.38 16.355V17ZM36.1847 17H32.2397V16.355L33.4997 15.86V6.605H32.2397V5.705C32.6297 5.515 33.0797 5.42 33.5897 5.42C34.1097 5.42 34.4597 5.545 34.6397 5.795C34.8197 6.035 34.9097 6.405 34.9097 6.905V15.86L36.1847 16.355V17ZM43.8558 16.085C43.1258 16.805 42.2058 17.165 41.0958 17.165C39.9858 17.165 39.0658 16.805 38.3358 16.085C37.6058 15.355 37.2408 14.41 37.2408 13.25C37.2408 12.09 37.6058 11.145 38.3358 10.415C39.0658 9.685 39.9858 9.32 41.0958 9.32C42.2058 9.32 43.1258 9.685 43.8558 10.415C44.5858 11.145 44.9508 12.09 44.9508 13.25C44.9508 14.41 44.5858 15.355 43.8558 16.085ZM39.3708 15.26C39.8208 15.74 40.3958 15.98 41.0958 15.98C41.7958 15.98 42.3708 15.74 42.8208 15.26C43.2708 14.77 43.4958 14.115 43.4958 13.295C43.4958 12.475 43.2658 11.805 42.8058 11.285C42.3558 10.765 41.7858 10.505 41.0958 10.505C40.4058 10.505 39.8308 10.765 39.3708 11.285C38.9208 11.805 38.6958 12.475 38.6958 13.295C38.6958 14.115 38.9208 14.77 39.3708 15.26ZM45.4581 9.515H49.2831V10.175L48.2631 10.535L49.8681 15.59L51.4131 10.535L50.3931 10.175V9.515H54.2181V10.175L53.0331 10.565L54.6381 15.575L56.1831 10.535L55.1631 10.175V9.515H58.9131V10.175L57.7131 10.565L55.3881 17H53.8881L52.1931 11.99L50.6181 17H49.1181L46.6581 10.565L45.4581 10.175V9.515Z" fill="white"/>
</svg>
