<svg width="315" height="95" viewBox="0 0 315 95" fill="none" xmlns="http://www.w3.org/2000/svg">
<path d="M0 35C0 15.67 15.67 0 35 0H234C253.33 0 269 15.67 269 35V60C269 79.33 253.33 95 234 95H35C15.67 95 0 79.33 0 60V35Z" fill="#FF5454"/>
<path d="M89.64 60.455C94.995 60.455 98.355 57.235 98.355 53.175C98.355 49.36 96.045 47.61 93.07 46.315L89.395 44.74C87.4 43.9 85.16 42.955 85.16 40.47C85.16 38.16 87.05 36.69 89.955 36.69C92.335 36.69 94.225 37.635 95.8 39.105L97.515 37.04C95.695 35.15 93 33.855 89.955 33.855C85.3 33.855 81.87 36.725 81.87 40.68C81.87 44.425 84.705 46.245 87.085 47.26L90.795 48.87C93.21 49.955 95.065 50.795 95.065 53.42C95.065 55.94 93.035 57.62 89.675 57.62C87.015 57.62 84.425 56.36 82.605 54.435L80.645 56.64C82.885 58.985 86 60.455 89.64 60.455ZM108.634 60.455C111.259 60.455 113.149 59.09 114.934 57.025H115.039L115.284 60H117.944V40.995H114.759V54.47C112.939 56.745 111.574 57.69 109.614 57.69C107.094 57.69 106.044 56.185 106.044 52.65V40.995H102.859V53.035C102.859 57.865 104.644 60.455 108.634 60.455ZM132.729 60.455C137.104 60.455 140.989 56.71 140.989 50.165C140.989 44.355 138.329 40.505 133.394 40.505C131.294 40.505 129.159 41.695 127.444 43.2L127.549 39.77V32.14H124.364V60H126.919L127.199 58.04H127.339C128.984 59.545 130.979 60.455 132.729 60.455ZM132.204 57.795C130.944 57.795 129.229 57.27 127.549 55.8V45.825C129.369 44.11 131.049 43.2 132.659 43.2C136.264 43.2 137.664 46.035 137.664 50.235C137.664 54.96 135.354 57.795 132.204 57.795ZM145.999 60H149.184V46.21C150.934 44.25 152.544 43.305 153.979 43.305C156.394 43.305 157.514 44.81 157.514 48.38V60H160.699V46.21C162.484 44.25 164.024 43.305 165.494 43.305C167.909 43.305 169.029 44.81 169.029 48.38V60H172.214V47.96C172.214 43.095 170.359 40.505 166.439 40.505C164.129 40.505 162.134 42.01 160.174 44.145C159.404 41.905 157.829 40.505 154.924 40.505C152.649 40.505 150.654 41.94 149.009 43.76H148.904L148.624 40.995H145.999V60ZM178.402 60H181.587V40.995H178.402V60ZM180.012 37.075C181.272 37.075 182.147 36.235 182.147 34.94C182.147 33.715 181.272 32.875 180.012 32.875C178.752 32.875 177.877 33.715 177.877 34.94C177.877 36.235 178.752 37.075 180.012 37.075ZM194.025 60.455C195.18 60.455 196.44 60.105 197.525 59.755L196.895 57.375C196.265 57.62 195.39 57.865 194.725 57.865C192.52 57.865 191.785 56.535 191.785 54.19V43.585H196.93V40.995H191.785V35.64H189.125L188.74 40.995L185.765 41.17V43.585H188.6V54.12C188.6 57.9 189.965 60.455 194.025 60.455Z" fill="white"/>
</svg>
